<?xml version="1.0" encoding="UTF-8" standalone="no"?>
<!-- Created with Inkscape (http://www.inkscape.org/) -->

<svg
   width="100mm"
   height="100mm"
   viewBox="0 0 100 100"
   version="1.1"
   id="svg1"
   inkscape:version="1.3.2 (091e20e, 2023-11-25, custom)"
   sodipodi:docname="snowflake.svg"
   xmlns:inkscape="http://www.inkscape.org/namespaces/inkscape"
   xmlns:sodipodi="http://sodipodi.sourceforge.net/DTD/sodipodi-0.dtd"
   xmlns="http://www.w3.org/2000/svg"
   xmlns:svg="http://www.w3.org/2000/svg">
  <sodipodi:namedview
     id="namedview1"
     pagecolor="#ffffff"
     bordercolor="#000000"
     borderopacity="0.25"
     inkscape:showpageshadow="false"
     inkscape:pageopacity="0.0"
     inkscape:pagecheckerboard="0"
     inkscape:deskcolor="#d1d1d1"
     inkscape:document-units="mm"
     borderlayer="false"
     inkscape:zoom="3.227752"
     inkscape:cx="144.37293"
     inkscape:cy="186.66242"
     inkscape:window-width="2496"
     inkscape:window-height="1558"
     inkscape:window-x="-11"
     inkscape:window-y="-11"
     inkscape:window-maximized="1"
     inkscape:current-layer="layer1" />
  <defs
     id="defs1" />
  <g
     inkscape:label="Layer 1"
     inkscape:groupmode="layer"
     id="layer1">
    <path
       id="path1"
       style="fill:#a7d8ff;stroke-width:0.264583;fill-opacity:1"
       inkscape:transform-center-x="-0.04088049"
       inkscape:transform-center-y="-2.4288471"
       d="M 34.314574 4.8147653 L 27.274694 18.896593 L 23.688349 14.267418 L 23.820641 9.5266224 C 23.832663 9.0953749 23.494829 8.7386934 23.063581 8.7266712 C 22.632334 8.714649 22.275652 9.0519667 22.26363 9.4832142 L 22.184048 12.325935 L 20.154715 9.7059396 C 19.747377 9.1801185 18.982766 9.0673995 18.440608 9.4527251 L 18.41632 9.4697783 C 17.874161 9.8551039 17.765586 10.588818 18.172924 11.114639 L 20.02604 13.506741 L 17.757445 12.631859 C 17.354923 12.476633 16.906014 12.675305 16.750788 13.077827 C 16.595562 13.480349 16.794751 13.929774 17.197273 14.085 L 21.869856 15.886958 L 25.326492 20.348701 L 9.6452788 22.545983 L 20.895238 33.624376 L 15.577216 35.715205 L 10.330508 34.745755 C 9.9062707 34.667388 9.5014371 34.945769 9.4230701 35.370006 C 9.3447031 35.794244 9.6230838 36.199077 10.047321 36.277444 L 12.836815 36.792658 L 10.388386 37.75539 C 9.7472872 38.007435 9.4477891 38.68883 9.717109 39.283462 C 9.9864289 39.878094 10.719321 40.154074 11.36042 39.902029 L 13.765441 38.956351 L 12.463711 41.215127 C 12.248282 41.588904 12.375706 42.063199 12.749482 42.278628 C 13.123259 42.494058 13.597553 42.366634 13.812983 41.992858 L 16.08933 38.042711 L 21.648164 35.857315 L 18.885025 51.486335 L 32.999409 44.1581 L 33.103278 48.805362 L 30.410936 53.331184 C 30.190385 53.701961 30.31146 54.178268 30.682238 54.398819 C 31.053015 54.61937 31.528805 54.498295 31.749356 54.127518 L 33.168391 51.742133 L 33.234537 54.697509 C 33.249408 55.364329 33.780227 55.892414 34.424645 55.881416 C 35.069063 55.870418 35.575881 55.325055 35.56101 54.658235 L 35.49073 51.496154 L 37.218273 53.572513 C 37.494211 53.90414 37.983219 53.94922 38.314847 53.673282 C 38.646474 53.397343 38.691554 52.908336 38.415616 52.576708 L 35.434919 48.993981 L 35.328466 44.223729 L 49.264566 51.641881 L 46.774795 36.666568 L 52.832824 38.98994 L 54.638915 42.527192 C 54.835131 42.911403 55.302702 43.062922 55.686913 42.866706 C 56.071124 42.67049 56.222643 42.203436 56.026427 41.819225 L 55.007885 39.824515 L 57.095096 40.624983 C 57.749479 40.87599 58.503146 40.601746 58.785432 40.010033 C 59.067718 39.41832 58.768538 38.740203 58.114155 38.489196 L 55.120022 37.340429 L 58.470722 36.896011 C 58.898385 36.839239 59.197221 36.448792 59.140449 36.021129 C 59.083676 35.593466 58.693747 35.295147 58.266084 35.351919 L 52.740323 36.085208 C 52.582049 36.106219 52.441974 36.173416 52.330529 36.270726 L 46.968065 34.213488 L 58.800418 22.79713 L 43.358466 20.472724 L 47.431603 15.553645 L 52.112971 14.326846 C 52.530296 14.217491 52.777848 13.793842 52.668492 13.376517 C 52.559137 12.959191 52.135488 12.711123 51.718163 12.820478 L 49.134858 13.497439 L 50.660346 11.655175 C 51.106991 11.115825 51.047266 10.306727 50.526504 9.8413318 C 50.005743 9.3759367 49.227002 9.4353074 48.780358 9.974657 L 47.22438 11.853612 L 47.432636 9.3777942 C 47.468795 8.9478972 47.151982 8.5726609 46.722085 8.5365019 C 46.292188 8.500343 45.916952 8.8171558 45.880793 9.2470529 L 45.484952 13.954259 L 41.255236 19.061958 L 34.314574 4.8147653 z M 34.166779 16.837804 L 37.596027 23.480809 L 36.274661 25.076061 L 34.498025 26.008304 L 31.343179 24.148986 L 30.976793 23.676146 L 34.166779 16.837804 z M 39.627428 25.081228 L 47.327733 26.047061 L 41.410782 32.081835 L 41.083153 31.956261 L 38.80939 29.494396 L 39.627428 25.081228 z M 29.144347 25.277599 L 29.552591 25.804182 L 30.033698 29.27167 L 28.746438 30.537743 L 26.527452 31.410041 L 21.384614 26.57106 L 29.144347 25.277599 z M 27.80231 34.094632 L 31.586058 34.77521 L 32.854715 37.669607 L 32.869701 38.345535 L 26.645791 41.795971 L 27.80231 34.094632 z M 40.903319 34.414509 L 41.362723 34.590726 L 42.679438 41.472476 L 35.540856 37.882514 L 37.0095 34.91267 L 40.903319 34.414509 z "
       transform="translate(15.656536,17.05005)" />
  </g>
</svg>
